<svg width="300" height="44" viewBox="0 0 300 44" fill="none" xmlns="http://www.w3.org/2000/svg">
<g clip-path="url(#clip0_334_3996)">
<path d="M38.3139 40.7249L34.9539 37.3649C35.2539 37.0649 35.4939 36.8249 35.7339 36.5249C38.9139 32.8649 40.6539 28.1249 40.6539 23.2649C40.6539 17.9249 38.5539 12.8249 34.7739 9.04491C30.9339 5.20491 25.8939 3.10491 20.4939 3.10491C15.094 3.10491 10.054 5.20491 6.21399 9.04491C2.43399 12.8249 0.333984 17.9249 0.333984 23.2649C0.333984 28.6649 2.43399 33.7649 6.21399 37.5449C8.43399 39.7649 12.454 42.1049 15.814 43.1249H40.7139L38.3139 40.7249ZM29.4939 30.6449C29.0139 31.2449 28.4139 31.7849 27.8139 32.2649C27.2139 32.8049 26.5539 33.2249 25.8339 33.5849C25.0539 34.0049 24.2739 34.3049 23.4339 34.5449C22.4739 34.7849 21.5139 34.9049 20.4939 34.9049C14.074 34.9049 8.85399 29.6849 8.85399 23.2649C8.85399 16.9049 14.074 11.6849 20.4939 11.6849C26.9139 11.6849 32.1339 16.9049 32.1339 23.2649C32.1339 25.9649 31.1739 28.5449 29.4939 30.6449ZM74.0389 3.52491V25.2449C74.0389 30.3449 69.9589 34.6049 64.9789 34.7249C64.8589 34.7249 64.7389 34.7249 64.6189 34.7249C64.4989 34.7249 64.3789 34.7249 64.2589 34.7249C59.2789 34.6049 55.1989 30.2849 55.1989 25.2449V3.52491H46.7989V28.2449C46.7989 31.4849 47.9389 34.4849 50.0389 36.7649C50.8789 37.6649 51.7189 38.4449 52.6789 39.1649C56.0989 41.7449 60.2389 43.1249 64.6189 43.1249C68.9989 43.1249 73.0789 41.7449 76.5589 39.1649C77.5189 38.4449 78.3589 37.6649 79.1389 36.8249C81.2989 34.5449 82.4389 31.4849 82.4389 28.3049V3.52491H74.0389ZM85.1486 40.7849L83.8886 43.1249H94.4486L94.8686 42.3449L103.449 26.8049L98.1686 17.3249L85.1486 40.7849ZM128.469 40.7849L111.669 10.4849L108.189 4.24491L107.829 3.40491H105.789L105.369 4.24491L101.949 10.4849L101.529 11.2649L106.809 20.8049L106.929 21.0449L110.829 28.0649L118.749 42.3449L119.169 43.1249H129.729L128.469 40.7849ZM143.753 43.1249V17.8049H135.353V43.1249H143.753ZM122.033 3.52491V11.9249H135.353H143.753H157.733V3.52491H122.033ZM185.472 43.1249V17.8049H177.072V43.1249H185.472ZM163.752 3.52491V11.9249H177.072H185.472H199.451V3.52491H163.752ZM260.299 0.944914C259.939 2.34492 259.477 3.86491 258.919 5.50491C258.358 7.10491 257.758 8.72491 257.119 10.3649C256.477 11.9649 255.817 13.5049 255.139 14.9849H248.719C248.998 13.7849 249.277 12.5449 249.559 11.2649C249.838 9.98491 250.099 8.70492 250.339 7.42491C250.618 6.10491 250.858 4.84491 251.059 3.64491C251.299 2.44491 251.497 1.32491 251.659 0.284912H259.879L260.299 0.944914ZM287.406 19.1249H276.006C274.026 19.1249 272.406 17.5049 272.406 15.5249C272.406 13.5449 274.026 11.9249 276.006 11.9249H289.146C290.466 12.3449 291.366 13.5449 291.366 14.9849H299.586C299.586 13.9049 299.466 12.8849 299.166 11.9249C297.846 7.06491 293.406 3.52491 288.126 3.52491H276.006C271.686 3.52491 267.666 5.80491 265.566 9.58491C264.546 11.3849 264.006 13.4249 264.006 15.5249C264.006 17.6249 264.546 19.6649 265.566 21.4649C266.046 22.3049 266.586 23.0249 267.186 23.6849C269.466 26.0849 272.646 27.5249 276.006 27.5249H287.406C289.386 27.5249 290.946 29.1449 290.946 31.1249C290.946 33.1049 289.386 34.7249 287.406 34.7249H274.386C273.126 34.3049 272.226 33.1049 272.226 31.6649H264.006C264.006 32.7449 264.126 33.7649 264.366 34.7249C265.746 39.5849 270.186 43.1249 275.466 43.1249H287.406C291.666 43.1249 295.686 40.8449 297.786 37.1249C298.866 35.2649 299.406 33.2249 299.406 31.1249C299.406 29.0249 298.866 26.9849 297.786 25.1849C295.686 21.4649 291.666 19.1249 287.406 19.1249Z" fill="#BDB8AD"/>
<path d="M234.57 3.40503L234.09 4.06503L225.21 16.185L216.33 4.06503L215.85 3.40503H205.47L207.27 5.92503L220.29 23.685L220.65 24.225H220.71V24.285L221.01 24.705V43.125H229.41V24.645L229.71 24.285V24.225H229.77L230.13 23.685L243.15 5.92503L244.95 3.40503H234.57Z" fill="#FC8E5B"/>
</g>
<defs>
<clipPath id="clip0_334_3996">
<rect width="300" height="43.125" fill="white"/>
</clipPath>
</defs>
</svg>
