<svg width="300" height="44" viewBox="0 0 300 44" fill="none" xmlns="http://www.w3.org/2000/svg">
<g clip-path="url(#clip0_489_8122)">
<path d="M38.3139 40.725L34.9539 37.365C35.2539 37.065 35.4939 36.825 35.7339 36.525C38.9139 32.865 40.6539 28.125 40.6539 23.265C40.6539 17.925 38.5539 12.825 34.7739 9.04498C30.9339 5.20498 25.8939 3.10497 20.4939 3.10497C15.094 3.10497 10.054 5.20498 6.21399 9.04498C2.43399 12.825 0.333984 17.925 0.333984 23.265C0.333984 28.665 2.43399 33.765 6.21399 37.545C8.43399 39.765 12.454 42.105 15.814 43.125H40.7139L38.3139 40.725ZM29.4939 30.645C29.0139 31.245 28.4139 31.785 27.8139 32.265C27.2139 32.805 26.5539 33.225 25.8339 33.585C25.0539 34.005 24.2739 34.305 23.4339 34.545C22.4739 34.785 21.5139 34.905 20.4939 34.905C14.074 34.905 8.85399 29.685 8.85399 23.265C8.85399 16.905 14.074 11.685 20.4939 11.685C26.9139 11.685 32.1339 16.905 32.1339 23.265C32.1339 25.965 31.1739 28.545 29.4939 30.645ZM74.0389 3.52498V25.245C74.0389 30.345 69.9589 34.605 64.9789 34.725C64.8589 34.725 64.7389 34.725 64.6189 34.725C64.4989 34.725 64.3789 34.725 64.2589 34.725C59.2789 34.605 55.1989 30.285 55.1989 25.245V3.52498H46.7989V28.245C46.7989 31.485 47.9389 34.485 50.0389 36.765C50.8789 37.665 51.7189 38.445 52.6789 39.165C56.0989 41.745 60.2389 43.125 64.6189 43.125C68.9989 43.125 73.0789 41.745 76.5589 39.165C77.5189 38.445 78.3589 37.665 79.1389 36.825C81.2989 34.545 82.4389 31.485 82.4389 28.305V3.52498H74.0389ZM85.1486 40.785L83.8886 43.125H94.4486L94.8686 42.345L103.449 26.805L98.1686 17.325L85.1486 40.785ZM128.469 40.785L111.669 10.485L108.189 4.24497L107.829 3.40497H105.789L105.369 4.24497L101.949 10.485L101.529 11.265L106.809 20.805L106.929 21.045L110.829 28.065L118.749 42.345L119.169 43.125H129.729L128.469 40.785ZM143.753 43.125V17.805H135.353V43.125H143.753ZM122.033 3.52498V11.925H135.353H143.753H157.733V3.52498H122.033ZM185.472 43.125V17.805H177.072V43.125H185.472ZM163.752 3.52498V11.925H177.072H185.472H199.451V3.52498H163.752ZM260.299 0.944975C259.939 2.34498 259.477 3.86497 258.919 5.50498C258.358 7.10497 257.758 8.72497 257.119 10.365C256.477 11.965 255.817 13.505 255.139 14.985H248.719C248.998 13.785 249.277 12.545 249.559 11.265C249.838 9.98497 250.099 8.70498 250.339 7.42497C250.618 6.10497 250.858 4.84497 251.059 3.64497C251.299 2.44498 251.497 1.32497 251.659 0.284973H259.879L260.299 0.944975ZM287.406 19.125H276.006C274.026 19.125 272.406 17.505 272.406 15.525C272.406 13.545 274.026 11.925 276.006 11.925H289.146C290.466 12.345 291.366 13.545 291.366 14.985H299.586C299.586 13.905 299.466 12.885 299.166 11.925C297.846 7.06498 293.406 3.52498 288.126 3.52498H276.006C271.686 3.52498 267.666 5.80498 265.566 9.58498C264.546 11.385 264.006 13.425 264.006 15.525C264.006 17.625 264.546 19.665 265.566 21.465C266.046 22.305 266.586 23.025 267.186 23.685C269.466 26.085 272.646 27.525 276.006 27.525H287.406C289.386 27.525 290.946 29.145 290.946 31.125C290.946 33.105 289.386 34.725 287.406 34.725H274.386C273.126 34.305 272.226 33.105 272.226 31.665H264.006C264.006 32.745 264.126 33.765 264.366 34.725C265.746 39.585 270.186 43.125 275.466 43.125H287.406C291.666 43.125 295.686 40.845 297.786 37.125C298.866 35.265 299.406 33.225 299.406 31.125C299.406 29.025 298.866 26.985 297.786 25.185C295.686 21.465 291.666 19.125 287.406 19.125Z" fill="white"/>
<path d="M234.57 3.40503L234.09 4.06503L225.21 16.185L216.33 4.06503L215.85 3.40503H205.47L207.27 5.92503L220.29 23.685L220.65 24.225H220.71V24.285L221.01 24.705V43.125H229.41V24.645L229.71 24.285V24.225H229.77L230.13 23.685L243.15 5.92503L244.95 3.40503H234.57Z" fill="#FC8E5B"/>
</g>
<defs>
<clipPath id="clip0_489_8122">
<rect width="300" height="43.125" fill="white"/>
</clipPath>
</defs>
</svg>
