<svg width="150" height="22" viewBox="0 0 150 22" fill="none" xmlns="http://www.w3.org/2000/svg">
<g clip-path="url(#clip0_489_8122)">
<path d="M19.157 20.3625L17.477 18.6825C17.627 18.5325 17.747 18.4125 17.867 18.2625C19.457 16.4325 20.327 14.0625 20.327 11.6325C20.327 8.96252 19.277 6.41252 17.387 4.52252C15.467 2.60252 12.947 1.55252 10.247 1.55252C7.547 1.55252 5.027 2.60252 3.107 4.52252C1.217 6.41252 0.166992 8.96252 0.166992 11.6325C0.166992 14.3325 1.217 16.8825 3.107 18.7725C4.217 19.8825 6.227 21.0525 7.907 21.5625H20.357L19.157 20.3625ZM14.747 15.3225C14.507 15.6225 14.207 15.8925 13.907 16.1325C13.607 16.4025 13.277 16.6125 12.917 16.7925C12.527 17.0025 12.137 17.1525 11.717 17.2725C11.237 17.3925 10.757 17.4525 10.247 17.4525C7.037 17.4525 4.427 14.8425 4.427 11.6325C4.427 8.45252 7.037 5.84252 10.247 5.84252C13.457 5.84252 16.067 8.45252 16.067 11.6325C16.067 12.9825 15.587 14.2725 14.747 15.3225ZM37.0194 1.76252V12.6225C37.0194 15.1725 34.9794 17.3025 32.4894 17.3625C32.4294 17.3625 32.3694 17.3625 32.3094 17.3625C32.2494 17.3625 32.1894 17.3625 32.1294 17.3625C29.6394 17.3025 27.5994 15.1425 27.5994 12.6225V1.76252H23.3994V14.1225C23.3994 15.7425 23.9694 17.2425 25.0194 18.3825C25.4394 18.8325 25.8594 19.2225 26.3394 19.5825C28.0494 20.8725 30.1194 21.5625 32.3094 21.5625C34.4994 21.5625 36.5394 20.8725 38.2794 19.5825C38.7594 19.2225 39.1794 18.8325 39.5694 18.4125C40.6494 17.2725 41.2194 15.7425 41.2194 14.1525V1.76252H37.0194ZM42.5743 20.3925L41.9443 21.5625H47.2243L47.4343 21.1725L51.7243 13.4025L49.0843 8.66252L42.5743 20.3925ZM64.2343 20.3925L55.8343 5.24252L54.0943 2.12252L53.9143 1.70252H52.8943L52.6843 2.12252L50.9743 5.24252L50.7643 5.63252L53.4043 10.4025L53.4643 10.5225L55.4143 14.0325L59.3743 21.1725L59.5843 21.5625H64.8643L64.2343 20.3925ZM71.8766 21.5625V8.90252H67.6766V21.5625H71.8766ZM61.0166 1.76252V5.96252H67.6766H71.8766H78.8666V1.76252H61.0166ZM92.736 21.5625V8.90252H88.536V21.5625H92.736ZM81.876 1.76252V5.96252H88.536H92.736H99.7256V1.76252H81.876ZM130.149 0.472518C129.969 1.17252 129.739 1.93252 129.459 2.75252C129.179 3.55252 128.879 4.36251 128.559 5.18252C128.239 5.98251 127.909 6.75252 127.569 7.49252H124.359C124.499 6.89252 124.639 6.27252 124.779 5.63252C124.919 4.99251 125.049 4.35252 125.169 3.71252C125.309 3.05252 125.429 2.42252 125.529 1.82252C125.649 1.22252 125.749 0.662517 125.829 0.142517H129.939L130.149 0.472518ZM143.703 9.56252H138.003C137.013 9.56252 136.203 8.75252 136.203 7.76252C136.203 6.77252 137.013 5.96252 138.003 5.96252H144.573C145.233 6.17252 145.683 6.77252 145.683 7.49252H149.793C149.793 6.95252 149.733 6.44252 149.583 5.96252C148.923 3.53252 146.703 1.76252 144.063 1.76252H138.003C135.843 1.76252 133.833 2.90252 132.783 4.79252C132.273 5.69252 132.003 6.71252 132.003 7.76252C132.003 8.81252 132.273 9.83252 132.783 10.7325C133.023 11.1525 133.293 11.5125 133.593 11.8425C134.733 13.0425 136.323 13.7625 138.003 13.7625H143.703C144.693 13.7625 145.473 14.5725 145.473 15.5625C145.473 16.5525 144.693 17.3625 143.703 17.3625H137.193C136.563 17.1525 136.113 16.5525 136.113 15.8325H132.003C132.003 16.3725 132.063 16.8825 132.183 17.3625C132.873 19.7925 135.093 21.5625 137.733 21.5625H143.703C145.833 21.5625 147.843 20.4225 148.893 18.5625C149.433 17.6325 149.703 16.6125 149.703 15.5625C149.703 14.5125 149.433 13.4925 148.893 12.5925C147.843 10.7325 145.833 9.56252 143.703 9.56252Z" fill="white"/>
<path d="M117.285 1.70251L117.045 2.03251L112.605 8.09251L108.165 2.03251L107.925 1.70251H102.735L103.635 2.96251L110.145 11.8425L110.325 12.1125H110.355V12.1425L110.505 12.3525V21.5625H114.705V12.3225L114.855 12.1425V12.1125H114.885L115.065 11.8425L121.575 2.96251L122.475 1.70251H117.285Z" fill="#FC8E5B"/>
</g>
<defs>
<clipPath id="clip0_489_8122">
<rect width="150" height="21.5625" fill="white"/>
</clipPath>
</defs>
</svg>
