<svg width="160" height="23" viewBox="0 0 160 23" fill="none" xmlns="http://www.w3.org/2000/svg">
<g clip-path="url(#clip0_334_3996)">
<path d="M20.4342 21.7201L18.6422 19.9281C18.8022 19.7681 18.9302 19.6401 19.0582 19.4801C20.7542 17.5281 21.6822 15.0001 21.6822 12.4081C21.6822 9.5601 20.5622 6.8401 18.5462 4.8241C16.4982 2.7761 13.8102 1.6561 10.9302 1.6561C8.05023 1.6561 5.36223 2.7761 3.31423 4.8241C1.29823 6.8401 0.178223 9.5601 0.178223 12.4081C0.178223 15.2881 1.29823 18.0081 3.31423 20.0241C4.49823 21.2081 6.64223 22.4561 8.43423 23.0001H21.7142L20.4342 21.7201ZM15.7302 16.3441C15.4742 16.6641 15.1542 16.9521 14.8342 17.2081C14.5142 17.4961 14.1622 17.7201 13.7782 17.9121C13.3622 18.1361 12.9462 18.2961 12.4982 18.4241C11.9862 18.5521 11.4742 18.6161 10.9302 18.6161C7.50623 18.6161 4.72223 15.8321 4.72223 12.4081C4.72223 9.0161 7.50623 6.2321 10.9302 6.2321C14.3542 6.2321 17.1382 9.0161 17.1382 12.4081C17.1382 13.8481 16.6262 15.2241 15.7302 16.3441ZM39.4875 1.8801V13.4641C39.4875 16.1841 37.3115 18.4561 34.6555 18.5201C34.5915 18.5201 34.5275 18.5201 34.4635 18.5201C34.3995 18.5201 34.3355 18.5201 34.2715 18.5201C31.6155 18.4561 29.4395 16.1521 29.4395 13.4641V1.8801H24.9595V15.0641C24.9595 16.7921 25.5675 18.3921 26.6875 19.6081C27.1355 20.0881 27.5835 20.5041 28.0955 20.8881C29.9195 22.2641 32.1275 23.0001 34.4635 23.0001C36.7995 23.0001 38.9755 22.2641 40.8315 20.8881C41.3435 20.5041 41.7915 20.0881 42.2075 19.6401C43.3595 18.4241 43.9675 16.7921 43.9675 15.0961V1.8801H39.4875ZM45.4127 21.7521L44.7407 23.0001H50.3727L50.5967 22.5841L55.1727 14.2961L52.3567 9.2401L45.4127 21.7521ZM68.5167 21.7521L59.5567 5.5921L57.7007 2.2641L57.5087 1.8161H56.4207L56.1967 2.2641L54.3727 5.5921L54.1487 6.0081L56.9647 11.0961L57.0287 11.2241L59.1087 14.9681L63.3327 22.5841L63.5567 23.0001H69.1887L68.5167 21.7521ZM76.6685 23.0001V9.4961H72.1885V23.0001H76.6685ZM65.0845 1.8801V6.3601H72.1885H76.6685H84.1245V1.8801H65.0845ZM98.9185 23.0001V9.4961H94.4385V23.0001H98.9185ZM87.3345 1.8801V6.3601H94.4385H98.9185H106.374V1.8801H87.3345ZM138.826 0.504101C138.634 1.25077 138.388 2.06143 138.09 2.9361C137.791 3.78943 137.471 4.65343 137.13 5.5281C136.788 6.38143 136.436 7.20277 136.074 7.9921H132.65C132.799 7.3521 132.948 6.69077 133.098 6.0081C133.247 5.32543 133.386 4.64277 133.514 3.9601C133.663 3.2561 133.791 2.5841 133.898 1.9441C134.026 1.3041 134.132 0.706767 134.218 0.1521H138.602L138.826 0.504101ZM153.283 10.2001H147.203C146.147 10.2001 145.283 9.3361 145.283 8.2801C145.283 7.2241 146.147 6.3601 147.203 6.3601H154.211C154.915 6.5841 155.395 7.2241 155.395 7.9921H159.779C159.779 7.4161 159.715 6.8721 159.555 6.3601C158.851 3.7681 156.483 1.8801 153.667 1.8801H147.203C144.899 1.8801 142.755 3.0961 141.635 5.1121C141.091 6.0721 140.803 7.1601 140.803 8.2801C140.803 9.4001 141.091 10.4881 141.635 11.4481C141.891 11.8961 142.179 12.2801 142.499 12.6321C143.715 13.9121 145.411 14.6801 147.203 14.6801H153.283C154.339 14.6801 155.171 15.5441 155.171 16.6001C155.171 17.6561 154.339 18.5201 153.283 18.5201H146.339C145.667 18.2961 145.187 17.6561 145.187 16.8881H140.803C140.803 17.4641 140.867 18.0081 140.995 18.5201C141.731 21.1121 144.099 23.0001 146.915 23.0001H153.283C155.555 23.0001 157.699 21.7841 158.819 19.8001C159.395 18.8081 159.683 17.7201 159.683 16.6001C159.683 15.4801 159.395 14.3921 158.819 13.4321C157.699 11.4481 155.555 10.2001 153.283 10.2001Z" fill="#BDB8AD"/>
<path d="M125.104 1.81592L124.848 2.16792L120.112 8.63192L115.376 2.16792L115.12 1.81592H109.584L110.544 3.15992L117.488 12.6319L117.68 12.9199H117.712V12.9519L117.872 13.1759V22.9999H122.352V13.1439L122.512 12.9519V12.9199H122.544L122.736 12.6319L129.68 3.15992L130.64 1.81592H125.104Z" fill="#FC8E5B"/>
</g>
<defs>
<clipPath id="clip0_334_3996">
<rect width="160" height="23" fill="white"/>
</clipPath>
</defs>
</svg>
